<svg xmlns="http://www.w3.org/2000/svg" viewBox="0 0 800 900" role="img" aria-label="Editorial fashion illustration">
  <defs>
    <linearGradient id="bg" x1="0" y1="0" x2="1" y2="1">
      <stop offset="0%" stop-color="#17335f"/>
      <stop offset="100%" stop-color="#0c1b33"/>
    </linearGradient>
    <linearGradient id="gold" x1="0" y1="0" x2="1" y2="1">
      <stop offset="0%" stop-color="#caa86a"/>
      <stop offset="100%" stop-color="#f4e1b2"/>
    </linearGradient>
  </defs>
  <rect width="800" height="900" fill="url(#bg)" rx="44"/>
  <circle cx="640" cy="180" r="110" fill="rgba(255,255,255,.08)"/>
  <circle cx="210" cy="720" r="150" fill="rgba(255,255,255,.06)"/>
  <rect x="305" y="155" width="190" height="112" rx="56" fill="#f4d5bf"/>
  <rect x="278" y="250" width="244" height="318" rx="80" fill="url(#gold)"/>
  <rect x="235" y="290" width="70" height="230" rx="35" fill="#f4d5bf"/>
  <rect x="495" y="290" width="70" height="230" rx="35" fill="#f4d5bf"/>
  <rect x="320" y="545" width="60" height="220" rx="28" fill="#f4d5bf"/>
  <rect x="420" y="545" width="60" height="220" rx="28" fill="#f4d5bf"/>
  <rect x="292" y="275" width="216" height="130" rx="28" fill="#fff" opacity=".14"/>
  <path d="M280 430c70 18 170 18 240 0v126c0 70-54 126-120 126s-120-56-120-126V430Z" fill="#f9fafb" opacity=".22"/>
  <text x="72" y="112" fill="#fff" font-size="40" font-family="Arial, sans-serif">Seasonal Capsule</text>
</svg>
